<svg xmlns="http://www.w3.org/2000/svg" viewBox="0 0 64 64" role="img" aria-label="Paid sharing">
  <!-- ShareGate: folder + cloud download + paid badge (header + App Store) -->
  <path fill="#0082C9" d="M8 22V14.5C8 11.5 10.5 9 13.5 9h12l4 5h17.5C50 14 53 17 53 20.5V46c0 3-3 5.5-6.5 5.5H13.5C10.5 51.5 8 49 8 46V22zm4 6v18c0 1.1.9 2 2 2h36c1.1 0 2-.9 2-2V22H30l-4-5H14.5c-1.1 0-2 .9-2 2v9z"/>
  <path fill="#0082C9" d="M14 38.5c0-4.4 3.6-8 8-8 1.7 0 3.2.5 4.5 1.4 1.2-2.8 4-4.7 7.2-4.7 4.3 0 7.8 3.5 7.8 7.8 0 .5-.05 1-.15 1.45H39c1.4 0 2.5 1.1 2.5 2.5v3c0 1.4-1.1 2.5-2.5 2.5H20.5c-4.4 0-8-3.6-8-8 2.5 0 4.5-2 4.5-4.5z"/>
  <path fill="#ffffff" stroke="#0082C9" stroke-width="2" d="M22.5 44.5v8h5v-8h3l-5.5-5.5L19.5 44.5h3z"/>
  <circle fill="#0082C9" stroke="#ffffff" stroke-width="2.5" cx="46" cy="44" r="11"/>
  <path fill="#ffffff" d="M45.1 37.4h1.8v14.4H45.1V37.4zm.9 2.4c-3 0-4.7 1.3-4.7 3.2 0 1.4.9 2.3 3.2 2.9 2.5.6 3.8 1.5 3.8 3.3 0 2.1-2.1 3.7-5.4 3.7-3.1 0-5.3-1.5-5.3-3.9h1.9c0 1.3 1 2.1 3 2.1 1.8 0 3-.7 3-1.8 0-1-.8-1.6-3.1-2.1-2.8-.7-3.9-1.6-3.9-3.4 0-2.2 2-3.8 5.3-3.8 3 0 5.1 1.4 5.1 3.8h-1.9c0-1.1-.9-1.8-2.8-1.8z"/>
</svg>
